<?xml version="1.0" encoding="utf-8"?>
<!-- Generator: Adobe Illustrator 22.1.0, SVG Export Plug-In . SVG Version: 6.00 Build 0)  -->
<svg version="1.1" id="Layer_1" xmlns="http://www.w3.org/2000/svg" xmlns:xlink="http://www.w3.org/1999/xlink" x="0px" y="0px"
	 viewBox="0 0 472 606" style="enable-background:new 0 0 472 606;" xml:space="preserve">
<style type="text/css">
	.st0{fill:#FFFFFF;stroke:#000000;stroke-width:11;stroke-miterlimit:10;}
	.st1{fill:none;stroke:#000000;stroke-width:11;stroke-miterlimit:10;}
	.st2{fill:none;stroke:#F2BC1B;stroke-width:20;stroke-miterlimit:10;}
	.st3{fill:none;stroke:#F2BC1B;stroke-width:10;stroke-miterlimit:10;}
	.st4{fill:none;stroke:#000000;stroke-width:10;stroke-miterlimit:10;}
	.st5{fill:none;stroke:#000000;stroke-width:12;stroke-miterlimit:10;}
</style>
<polygon class="st0" points="436,571 40,571 40,52 301,52 436,183 "/>
<polyline class="st1" points="436,189 297,189 297,50 "/>
<polyline class="st2" points="65,70 65,547 405,547 "/>
<polyline class="st3" points="317,95 317,167 390,167 "/>
<line class="st4" x1="293" y1="200" x2="430" y2="200"/>
<polyline class="st1" points="69.5,581.5 447.5,581.5 447.5,184.5 "/>
<g>
	<path d="M182,386h-41.4c-4.8,0-8.6-4.9-8.6-11v-42c0-6.1,3.8-11,8.6-11H182V386z"/>
	<polygon points="257.5,436.5 193.5,386.5 193.5,322.5 257.5,272.5 	"/>
</g>
<g>
	<path class="st5" d="M333.8,242c32.7,26.9,53.5,67.6,53.5,113.2c0,43-18.5,81.6-48,108.4"/>
	<path class="st5" d="M309.1,270.1c24.9,20,40.9,50.7,40.9,85.2c0,33.3-14.9,63.1-38.4,83.1"/>
	<path class="st5" d="M276.5,298.7c18.7,11.8,31.1,32.7,31.1,56.5c0,21.5-10.1,40.6-25.9,52.8"/>
</g>
</svg>
