<?xml version="1.0" encoding="utf-8"?>
<!-- Generator: Adobe Illustrator 22.1.0, SVG Export Plug-In . SVG Version: 6.00 Build 0)  -->
<svg version="1.1" id="Layer_1" xmlns="http://www.w3.org/2000/svg" xmlns:xlink="http://www.w3.org/1999/xlink" x="0px" y="0px"
	 viewBox="0 0 472 606" style="enable-background:new 0 0 472 606;" xml:space="preserve">
<style type="text/css">
	.st0{fill:#FFFFFF;stroke:#000000;stroke-width:11;stroke-miterlimit:10;}
	.st1{fill:none;stroke:#000000;stroke-width:11;stroke-miterlimit:10;}
	.st2{fill:none;stroke:#F2BC1B;stroke-width:20;stroke-miterlimit:10;}
	.st3{fill:none;stroke:#F2BC1B;stroke-width:10;stroke-miterlimit:10;}
	.st4{fill:none;stroke:#000000;stroke-width:10;stroke-miterlimit:10;}
	.st5{fill:none;stroke:#000000;stroke-width:17;stroke-miterlimit:10;}
</style>
<polygon class="st0" points="436,571 40,571 40,52 301,52 436,183 "/>
<polyline class="st1" points="436,189 297,189 297,50 "/>
<polyline class="st2" points="65,70 65,547 405,547 "/>
<polyline class="st3" points="317,95 317,167 390,167 "/>
<line class="st4" x1="293" y1="200" x2="430" y2="200"/>
<polyline class="st1" points="69.5,581.5 447.5,581.5 447.5,184.5 "/>
<g>
	<path d="M183,386h-41.4c-4.8,0-8.6-4.9-8.6-11v-42c0-6.1,3.8-11,8.6-11H183V386z"/>
	<polygon points="254.5,436.5 190.5,386.5 190.5,322.5 254.5,272.5 	"/>
	<path d="M257.7,325c13.1,0,23.7,10.6,23.7,23.7s-10.6,23.7-23.7,23.7"/>
</g>
<g>
	<path class="st5" d="M322.2,269.6c23.1,19,37.8,47.7,37.8,79.9c0,30.3-13.1,57.6-33.9,76.5"/>
	<path class="st5" d="M304.8,289.4c17.6,14.1,28.9,35.8,28.9,60.1c0,23.5-10.5,44.5-27.1,58.7"/>
	<path class="st5" d="M281.8,309.6c13.2,8.3,21.9,23.1,21.9,39.9c0,15.2-7.1,28.7-18.3,37.3"/>
</g>
</svg>
