<?xml version="1.0" encoding="utf-8"?>
<!-- Generator: Adobe Illustrator 22.1.0, SVG Export Plug-In . SVG Version: 6.00 Build 0)  -->
<svg version="1.1" id="Layer_1" xmlns="http://www.w3.org/2000/svg" xmlns:xlink="http://www.w3.org/1999/xlink" x="0px" y="0px"
	 viewBox="0 0 606 606" style="enable-background:new 0 0 606 606;" xml:space="preserve">
<style type="text/css">
	.st0{fill:#FFFFFF;stroke:#000000;stroke-width:11.1056;stroke-miterlimit:10;}
	.st1{fill:none;stroke:#000000;stroke-width:11.1056;stroke-miterlimit:10;}
	.st2{fill:none;stroke:#F2BC1B;stroke-width:20.1919;stroke-miterlimit:10;}
	.st3{fill:none;stroke:#000000;stroke-width:10.096;stroke-miterlimit:10;}
</style>
<g>
	<polygon class="st0" points="505.9,571 106.1,571 106.1,47 369.6,47 505.9,179.3 	"/>
	<polyline class="st1" points="505.9,185.3 365.5,185.3 365.5,45 	"/>
	<polyline class="st2" points="131.3,65.2 131.3,546.8 474.6,546.8 	"/>
	<polyline class="st2" points="385.7,124.3 385.7,163.1 421.8,163.1 	"/>
	<line class="st3" x1="361.5" y1="196.4" x2="499.8" y2="196.4"/>
	<polyline class="st1" points="134.8,581.6 516.5,581.6 516.5,180.8 	"/>
	<rect x="250.5" y="271.5" width="118.2" height="32.3"/>
	<g>
		<polygon points="368.1,381.4 368.1,348 250.5,348 250.5,381.4 		"/>
		<polygon points="250.5,424.5 250.5,457.9 368.7,457.9 368.7,424.9 		"/>
	</g>
</g>
</svg>
