<?xml version="1.0" encoding="utf-8"?>
<!-- Generator: Adobe Illustrator 22.1.0, SVG Export Plug-In . SVG Version: 6.00 Build 0)  -->
<svg version="1.1" id="Capa_1" xmlns="http://www.w3.org/2000/svg" xmlns:xlink="http://www.w3.org/1999/xlink" x="0px" y="0px"
	 viewBox="0 0 800 800" style="enable-background:new 0 0 800 800;" xml:space="preserve">
<style type="text/css">
	.st0{stroke:#000000;stroke-width:17;stroke-miterlimit:10;}
</style>
<g>
	<path class="st0" d="M556.7,150.1h76.1v-139H494.5C483,10.6,342.3,7.9,305.8,147c-0.5,1.5-12.2,34.5-12.2,111.8l-126.5,0.4v145.8
		l126.7-0.4V789h193.5V404.9h128.1V258.7H487.3v-46C487.3,184.1,499.3,150.1,556.7,150.1z M583.3,290.7v82.1H455.3V757H325.8V372.4
		l-126.7,0.4V291l127-0.4l-0.3-16.3c-1.7-81.8,10-116.2,10.5-117.9C367.8,36.7,488,42.8,493.1,43.1l107.7,0v75h-44.1
		c-74.8,0-101.4,48.9-101.4,94.6v78L583.3,290.7L583.3,290.7z"/>
</g>
</svg>
