<?xml version="1.0" encoding="utf-8"?>
<!-- Generator: Adobe Illustrator 22.1.0, SVG Export Plug-In . SVG Version: 6.00 Build 0)  -->
<svg version="1.1" id="Layer_1" xmlns="http://www.w3.org/2000/svg" xmlns:xlink="http://www.w3.org/1999/xlink" x="0px" y="0px"
	 viewBox="0 0 33.7 33.7" style="enable-background:new 0 0 33.7 33.7;" xml:space="preserve">
<style type="text/css">
	.st0{fill:#FFFFFF;}
</style>
<path class="st0" d="M16.8,25.2l-9.6-9.6l2.1-2.2l6,6V0.8h3v18.5l6-6l2.2,2.2L16.8,25.2z M3.8,32.8c-0.8,0-1.5-0.3-2.1-0.9
	c-0.6-0.6-0.9-1.3-0.9-2.1v-7.1h3v7.1l0,0l0,0h26l0,0l0,0v-7.1h3v7.1c0,0.8-0.3,1.5-0.9,2.1c-0.6,0.6-1.3,0.9-2.1,0.9H3.8z"/>
</svg>
