<?xml version="1.0" encoding="utf-8"?>
<!-- Generator: Adobe Illustrator 22.1.0, SVG Export Plug-In . SVG Version: 6.00 Build 0)  -->
<svg version="1.1" id="Layer_1" xmlns="http://www.w3.org/2000/svg" xmlns:xlink="http://www.w3.org/1999/xlink" x="0px" y="0px"
	 viewBox="0 0 472 606" style="enable-background:new 0 0 472 606;" xml:space="preserve">
<style type="text/css">
	.st0{fill:#FFFFFF;stroke:#000000;stroke-width:11;stroke-miterlimit:10;}
	.st1{fill:none;stroke:#000000;stroke-width:11;stroke-miterlimit:10;}
	.st2{fill:none;stroke:#F2BC1B;stroke-width:20;stroke-miterlimit:10;}
	.st3{fill:none;stroke:#F2BC1B;stroke-width:10;stroke-miterlimit:10;}
	.st4{fill:none;stroke:#000000;stroke-width:10;stroke-miterlimit:10;}
	.st5{stroke:#FFFFFF;stroke-width:10.1636;stroke-miterlimit:10;}
</style>
<polygon class="st0" points="436,571 40,571 40,52 301,52 436,183 "/>
<polyline class="st1" points="436,189 297,189 297,50 "/>
<polyline class="st2" points="65,70 65,547 405,547 "/>
<polyline class="st3" points="317,95 317,167 390,167 "/>
<line class="st4" x1="293" y1="200" x2="430" y2="200"/>
<polyline class="st1" points="69.5,581.5 447.5,581.5 447.5,184.5 "/>
<g>
	<polygon points="328.8,360.3 335,433.7 264.8,424.3 155,314.5 219,250.5 	"/>
	<path d="M143.8,304.9L143.8,304.9c-10.8-10.8-10.8-28.4,0-39.2l24.9-24.9c10.8-10.8,28.4-10.8,39.2,0l0,0"/>
	<path class="st5" d="M265.7,424.3c11.5-29.4,35.8-52.9,64-64"/>
</g>
</svg>
