<?xml version="1.0" encoding="utf-8"?>
<!-- Generator: Adobe Illustrator 22.1.0, SVG Export Plug-In . SVG Version: 6.00 Build 0)  -->
<svg version="1.1" id="Layer_1" xmlns="http://www.w3.org/2000/svg" xmlns:xlink="http://www.w3.org/1999/xlink" x="0px" y="0px"
	 viewBox="0 0 472 606" style="enable-background:new 0 0 472 606;" xml:space="preserve">
<style type="text/css">
	.st0{fill:#FFFFFF;stroke:#000000;stroke-width:11;stroke-miterlimit:10;}
	.st1{fill:none;stroke:#000000;stroke-width:11;stroke-miterlimit:10;}
	.st2{fill:none;stroke:#F2BC1B;stroke-width:20;stroke-miterlimit:10;}
	.st3{fill:none;stroke:#F2BC1B;stroke-width:10;stroke-miterlimit:10;}
	.st4{fill:none;stroke:#000000;stroke-width:10;stroke-miterlimit:10;}
</style>
<polygon class="st0" points="436,571 40,571 40,52 301,52 436,183 "/>
<polyline class="st1" points="436,189 297,189 297,50 "/>
<polyline class="st2" points="65,70 65,547 405,547 "/>
<polyline class="st3" points="317,95 317,167 390,167 "/>
<line class="st4" x1="293" y1="200" x2="430" y2="200"/>
<polyline class="st1" points="69.5,581.5 447.5,581.5 447.5,184.5 "/>
<g>
	<polyline points="238.4,316.3 342.4,276.1 342.4,409.1 238.4,373.8 	"/>
	<path d="M216.2,381.4h-42.9c-9,0-16.4-7.3-16.4-16.4v-42.9c0-9,7.3-16.4,16.4-16.4h42.9c9,0,16.4,7.3,16.4,16.4V365
		C232.6,374,225.3,381.4,216.2,381.4z"/>
	<path d="M201.7,392l-10.6,31.9c-2,6.1-8.6,9.5-14.7,7.5l0,0c-6.1-2-9.5-8.6-7.5-14.7l9.1-25.4"/>
	<polyline points="151.9,351.2 135.2,351.2 135.2,323.9 151.9,323.9 	"/>
</g>
</svg>
