<?xml version="1.0" encoding="utf-8"?>
<!-- Generator: Adobe Illustrator 22.1.0, SVG Export Plug-In . SVG Version: 6.00 Build 0)  -->
<svg version="1.1" id="Layer_1" xmlns="http://www.w3.org/2000/svg" xmlns:xlink="http://www.w3.org/1999/xlink" x="0px" y="0px"
	 viewBox="0 0 472 606" style="enable-background:new 0 0 472 606;" xml:space="preserve">
<style type="text/css">
	.st0{fill:#FFFFFF;stroke:#000000;stroke-width:11;stroke-miterlimit:10;}
	.st1{fill:none;stroke:#000000;stroke-width:11;stroke-miterlimit:10;}
	.st2{fill:none;stroke:#000000;stroke-width:20.2149;stroke-miterlimit:10;}
	.st3{fill:none;stroke:#F2BC1B;stroke-width:20;stroke-miterlimit:10;}
	.st4{fill:none;stroke:#F2BC1B;stroke-width:10;stroke-miterlimit:10;}
	.st5{fill:none;stroke:#000000;stroke-width:10;stroke-miterlimit:10;}
</style>
<polygon class="st0" points="436,571 40,571 40,52 301,52 436,183 "/>
<polyline class="st1" points="436,189 297,189 297,50 "/>
<g>
	<polyline class="st2" points="166.5,380.5 112.5,326.5 166.5,272.5 	"/>
	<polyline class="st2" points="314.5,272.5 368.5,326.5 314.5,380.5 	"/>
	<g>
		<circle cx="202" cy="328" r="12.5"/>
		<circle cx="241.5" cy="328.5" r="12.5"/>
		<circle cx="281" cy="329" r="12.5"/>
	</g>
</g>
<polyline class="st3" points="65,70 65,547 405,547 "/>
<polyline class="st4" points="317,95 317,167 390,167 "/>
<line class="st5" x1="293" y1="200" x2="430" y2="200"/>
<polyline class="st1" points="69.5,581.5 447.5,581.5 447.5,184.5 "/>
</svg>
