<?xml version="1.0" encoding="utf-8"?>
<!-- Generator: Adobe Illustrator 25.0.0, SVG Export Plug-In . SVG Version: 6.00 Build 0)  -->
<svg version="1.1" id="Layer_1" xmlns="http://www.w3.org/2000/svg" xmlns:xlink="http://www.w3.org/1999/xlink" x="0px" y="0px"
	 viewBox="0 0 472 606" style="enable-background:new 0 0 472 606;" xml:space="preserve">
<style type="text/css">
	.st0{fill:#FFFFFF;stroke:#000000;stroke-width:11;stroke-miterlimit:10;}
	.st1{fill:none;stroke:#000000;stroke-width:11;stroke-miterlimit:10;}
	.st2{fill:none;stroke:#F2BC1B;stroke-width:20;stroke-miterlimit:10;}
	.st3{fill:none;stroke:#F2BC1B;stroke-width:10;stroke-miterlimit:10;}
	.st4{fill:none;stroke:#000000;stroke-width:10;stroke-miterlimit:10;}
	.st5{fill:#FFFFFF;stroke:#000000;stroke-width:7.1845;stroke-miterlimit:10;}
	.st6{fill:#F2BC1B;stroke:#000000;stroke-width:7.1845;stroke-miterlimit:10;}
	.st7{fill:#FFFFFF;stroke:#000000;stroke-width:7.4013;stroke-miterlimit:10;}
</style>
<g>
	<polygon class="st0" points="436,538 40,538 40,19 301,19 436,150 	"/>
	<polyline class="st1" points="436,156 297,156 297,17 	"/>
	<polyline class="st2" points="65,37 65,514 255.5,514 	"/>
	<polyline class="st3" points="317,62 317,134 390,134 	"/>
	<line class="st4" x1="293" y1="167" x2="430" y2="167"/>
	<polyline class="st1" points="69.5,548.5 447.5,548.5 447.5,151.5 	"/>
	<g>
		<g>
			<polygon class="st5" points="342.1,600.8 319.2,575.1 285.4,581.5 327.5,457.2 384.3,476.4 			"/>
			<polygon class="st5" points="409.4,600.8 432.4,575.1 466.2,581.5 424.1,457.2 367.4,476.4 			"/>
		</g>
		<g>
			<path class="st6" d="M389.1,337.6l10.7,14.1l17.5-2.4c15.9-2.2,29.5,11.4,27.3,27.3l-2.4,17.5l14.1,10.7
				c12.8,9.7,12.8,28.9,0,38.6L442.1,454l2.4,17.5c2.2,15.9-11.4,29.5-27.3,27.3l-17.5-2.4l-10.7,14.1c-9.7,12.8-28.9,12.8-38.6,0
				l-10.7-14.1l-17.5,2.4c-15.9,2.2-29.5-11.4-27.3-27.3l2.4-17.5l-14.1-10.7c-12.8-9.7-12.8-28.9,0-38.6l14.1-10.7l-2.4-17.5
				c-2.2-15.9,11.4-29.5,27.3-27.3l17.5,2.4l10.7-14.1C360.2,324.8,379.4,324.8,389.1,337.6z"/>
			<circle class="st7" cx="369.8" cy="424.1" r="47"/>
		</g>
	</g>
	<rect x="113" y="223" width="278" height="22.5"/>
	<rect x="113" y="289.8" width="159.5" height="22.5"/>
</g>
</svg>
