<svg id="SVGID" width="100%" xmlns="http://www.w3.org/2000/svg" style="max-width: 100%; width: 100%; height: 100%; position: absolute; top: 50%; left: 50%; transform: translate(-50%, -50%);" viewBox="-8 -8 1829.0078125 283.181640625" role="graphics-document document" aria-roledescription="flowchart-v2" preserveAspectRatio="xMidYMid meet"><style>#SVGID{font-family:"trebuchet ms",verdana,arial,sans-serif;font-size:16px;fill:#000000;}#SVGID .error-icon{fill:#552222;}#SVGID .error-text{fill:#552222;stroke:#552222;}#SVGID .edge-thickness-normal{stroke-width:2px;}#SVGID .edge-thickness-thick{stroke-width:3.5px;}#SVGID .edge-pattern-solid{stroke-dasharray:0;}#SVGID .edge-pattern-dashed{stroke-dasharray:3;}#SVGID .edge-pattern-dotted{stroke-dasharray:2;}#SVGID .marker{fill:#666;stroke:#666;}#SVGID .marker.cross{stroke:#666;}#SVGID svg{font-family:"trebuchet ms",verdana,arial,sans-serif;font-size:16px;}#SVGID .label{font-family:"trebuchet ms",verdana,arial,sans-serif;color:#000000;}#SVGID .cluster-label text{fill:#333;}#SVGID .cluster-label span,#SVGID p{color:#333;}#SVGID .label text,#SVGID span,#SVGID p{fill:#000000;color:#000000;}#SVGID .node rect,#SVGID .node circle,#SVGID .node ellipse,#SVGID .node polygon,#SVGID .node path{fill:#eee;stroke:#999;stroke-width:1px;}#SVGID .flowchart-label text{text-anchor:middle;}#SVGID .node .label{text-align:center;}#SVGID .node.clickable{cursor:pointer;}#SVGID .arrowheadPath{fill:#333333;}#SVGID .edgePath .path{stroke:#666;stroke-width:2.0px;}#SVGID .flowchart-link{stroke:#666;fill:none;}#SVGID .edgeLabel{background-color:white;text-align:center;}#SVGID .edgeLabel rect{opacity:0.5;background-color:white;fill:white;}#SVGID .labelBkg{background-color:rgba(255, 255, 255, 0.5);}#SVGID .cluster rect{fill:hsl(0, 0%, 98.9215686275%);stroke:#707070;stroke-width:1px;}#SVGID .cluster text{fill:#333;}#SVGID .cluster span,#SVGID p{color:#333;}#SVGID div.mermaidTooltip{position:absolute;text-align:center;max-width:200px;padding:2px;font-family:"trebuchet ms",verdana,arial,sans-serif;font-size:12px;background:hsl(-160, 0%, 93.3333333333%);border:1px solid #707070;border-radius:2px;pointer-events:none;z-index:100;}#SVGID .flowchartTitleText{text-anchor:middle;font-size:18px;fill:#000000;}#SVGID :root{--mermaid-font-family:"trebuchet ms",verdana,arial,sans-serif;}</style><g><marker id="SVGID_flowchart-pointEnd" class="marker flowchart" viewBox="0 0 10 10" refX="6" refY="5" markerUnits="userSpaceOnUse" markerWidth="12" markerHeight="12" orient="auto"><path d="M 0 0 L 10 5 L 0 10 z" class="arrowMarkerPath" style="stroke-width: 1; stroke-dasharray: 1, 0;"/></marker><marker id="SVGID_flowchart-pointStart" class="marker flowchart" viewBox="0 0 10 10" refX="4.5" refY="5" markerUnits="userSpaceOnUse" markerWidth="12" markerHeight="12" orient="auto"><path d="M 0 5 L 10 10 L 10 0 z" class="arrowMarkerPath" style="stroke-width: 1; stroke-dasharray: 1, 0;"/></marker><marker id="SVGID_flowchart-circleEnd" class="marker flowchart" viewBox="0 0 10 10" refX="11" refY="5" markerUnits="userSpaceOnUse" markerWidth="11" markerHeight="11" orient="auto"><circle cx="5" cy="5" r="5" class="arrowMarkerPath" style="stroke-width: 1; stroke-dasharray: 1, 0;"/></marker><marker id="SVGID_flowchart-circleStart" class="marker flowchart" viewBox="0 0 10 10" refX="-1" refY="5" markerUnits="userSpaceOnUse" markerWidth="11" markerHeight="11" orient="auto"><circle cx="5" cy="5" r="5" class="arrowMarkerPath" style="stroke-width: 1; stroke-dasharray: 1, 0;"/></marker><marker id="SVGID_flowchart-crossEnd" class="marker cross flowchart" viewBox="0 0 11 11" refX="12" refY="5.2" markerUnits="userSpaceOnUse" markerWidth="11" markerHeight="11" orient="auto"><path d="M 1,1 l 9,9 M 10,1 l -9,9" class="arrowMarkerPath" style="stroke-width: 2; stroke-dasharray: 1, 0;"/></marker><marker id="SVGID_flowchart-crossStart" class="marker cross flowchart" viewBox="0 0 11 11" refX="-1" refY="5.2" markerUnits="userSpaceOnUse" markerWidth="11" markerHeight="11" orient="auto"><path d="M 1,1 l 9,9 M 10,1 l -9,9" class="arrowMarkerPath" style="stroke-width: 2; stroke-dasharray: 1, 0;"/></marker><g class="root"><g class="clusters"/><g class="edgePaths"><path d="M56.336,97.561L60.503,97.561C64.669,97.561,73.003,97.561,80.536,97.627C88.07,97.693,94.803,97.825,98.17,97.891L101.537,97.957" id="L-A-B-0" class=" edge-thickness-normal edge-pattern-solid flowchart-link LS-A LE-B" style="fill:none;" marker-end="url(#SVGID_flowchart-pointEnd)"/><path d="M181.805,85.749L189.542,82.592C197.278,79.436,212.75,73.123,231.402,69.967C250.053,66.811,271.884,66.811,296.297,66.811C320.71,66.811,347.704,66.811,368.725,69.66C389.746,72.51,404.793,78.209,412.317,81.059L419.841,83.909" id="L-B-C-0" class=" edge-thickness-normal edge-pattern-solid flowchart-link LS-B LE-C" style="fill:none;" marker-end="url(#SVGID_flowchart-pointEnd)"/><path d="M469.514,80.561L479.01,68.717C488.507,56.874,507.499,33.187,523.116,22.35C538.733,11.514,550.974,13.528,557.095,14.535L563.216,15.542" id="L-C-D-0" class=" edge-thickness-normal edge-pattern-solid flowchart-link LS-C LE-D" style="fill:none;" marker-end="url(#SVGID_flowchart-pointEnd)"/><path d="M568.445,32.097L561.453,33.248C554.461,34.398,540.477,36.699,525.812,44.212C511.148,51.726,495.804,64.451,488.132,70.814L480.46,77.177" id="L-D-C-0" class=" edge-thickness-normal edge-pattern-solid flowchart-link LS-D LE-C" style="fill:none;" marker-end="url(#SVGID_flowchart-pointEnd)"/><path d="M181.805,110.372L189.542,113.362C197.278,116.352,212.75,122.331,225.371,125.321C237.991,128.311,247.76,128.311,252.644,128.311L257.528,128.311" id="L-B-E-0" class=" edge-thickness-normal edge-pattern-solid flowchart-link LS-B LE-E" style="fill:none;" marker-end="url(#SVGID_flowchart-pointEnd)"/><path d="M324.602,128.311L332.951,128.311C341.301,128.311,358,128.311,373.873,125.461C389.746,122.611,404.793,116.912,412.317,114.062L419.841,111.212" id="L-E-C-0" class=" edge-thickness-normal edge-pattern-solid flowchart-link LS-E LE-C" style="fill:none;" marker-end="url(#SVGID_flowchart-pointEnd)"/><path d="M483.282,114.561L490.483,119.029C497.685,123.497,512.089,132.434,525.078,136.975C538.067,141.516,549.641,141.66,555.429,141.733L561.216,141.805" id="L-C-F-0" class=" edge-thickness-normal edge-pattern-solid flowchart-link LS-C LE-F" style="fill:none;" marker-end="url(#SVGID_flowchart-pointEnd)"/><path d="M652.848,127.961L664.953,123.196C677.058,118.431,701.267,108.901,724.513,104.136C747.758,99.371,770.04,99.371,781.18,99.371L792.321,99.371" id="L-F-G-0" class=" edge-thickness-normal edge-pattern-solid flowchart-link LS-F LE-G" style="fill:none;" marker-end="url(#SVGID_flowchart-pointEnd)"/><path d="M885.645,99.371L895.698,99.371C905.751,99.371,925.858,99.371,944.542,99.371C963.226,99.371,980.486,99.371,989.117,99.371L997.747,99.371" id="L-G-H-0" class=" edge-thickness-normal edge-pattern-solid flowchart-link LS-G LE-H" style="fill:none;" marker-end="url(#SVGID_flowchart-pointEnd)"/><path d="M1114.5,99.371L1120.281,99.371C1126.063,99.371,1137.625,99.371,1153.194,109.891C1168.764,120.411,1188.34,141.451,1198.128,151.971L1207.916,162.491" id="L-H-I-0" class=" edge-thickness-normal edge-pattern-solid flowchart-link LS-H LE-I" style="fill:none;" marker-end="url(#SVGID_flowchart-pointEnd)"/><path d="M652.848,155.781L664.953,160.379C677.058,164.978,701.267,174.174,722.358,178.773C743.449,183.371,761.422,183.371,770.409,183.371L779.395,183.371" id="L-F-J-0" class=" edge-thickness-normal edge-pattern-solid flowchart-link LS-F LE-J" style="fill:none;" marker-end="url(#SVGID_flowchart-pointEnd)"/><path d="M898.57,183.371L906.469,183.371C914.368,183.371,930.167,183.371,945.082,183.371C959.996,183.371,974.028,183.371,981.044,183.371L988.059,183.371" id="L-J-K-0" class=" edge-thickness-normal edge-pattern-solid flowchart-link LS-J LE-K" style="fill:none;" marker-end="url(#SVGID_flowchart-pointEnd)"/><path d="M1124.188,183.371L1128.354,183.371C1132.521,183.371,1140.854,183.371,1148.304,183.371C1155.754,183.371,1162.321,183.371,1165.604,183.371L1168.888,183.371" id="L-K-I-0" class=" edge-thickness-normal edge-pattern-solid flowchart-link LS-K LE-I" style="fill:none;" marker-end="url(#SVGID_flowchart-pointEnd)"/><path d="M1280.5,183.371L1287.68,183.371C1294.859,183.371,1309.219,183.371,1322.695,183.371C1336.171,183.371,1348.764,183.371,1355.06,183.371L1361.356,183.371" id="L-I-L-0" class=" edge-thickness-normal edge-pattern-solid flowchart-link LS-I LE-L" style="fill:none;" marker-end="url(#SVGID_flowchart-pointEnd)"/><path d="M1457.188,166.983L1461.354,165.474C1465.521,163.966,1473.854,160.949,1481.304,159.44C1488.754,157.932,1495.321,157.932,1498.604,157.932L1501.888,157.932" id="L-L-M-0" class=" edge-thickness-normal edge-pattern-solid flowchart-link LS-L LE-M" style="fill:none;" marker-end="url(#SVGID_flowchart-pointEnd)"/><path d="M1624.461,157.932L1628.628,157.932C1632.794,157.932,1641.128,157.932,1649.654,159.108C1658.18,160.285,1666.9,162.637,1671.259,163.814L1675.619,164.99" id="L-M-N-0" class=" edge-thickness-normal edge-pattern-solid flowchart-link LS-M LE-N" style="fill:none;" marker-end="url(#SVGID_flowchart-pointEnd)"/><path d="M1683.395,200.371L1677.739,201.965C1672.084,203.558,1660.772,206.745,1641.177,208.338C1621.582,209.932,1593.703,209.932,1565.824,209.932C1537.945,209.932,1510.066,209.932,1492.738,208.651C1475.409,207.369,1468.631,204.807,1465.242,203.526L1461.853,202.245" id="L-N-L-0" class=" edge-thickness-normal edge-pattern-solid flowchart-link LS-N LE-L" style="fill:none;" marker-end="url(#SVGID_flowchart-pointEnd)"/><path d="M1209.22,200.371L1199.215,209.756C1189.209,219.141,1169.198,237.911,1144.124,247.297C1119.049,256.682,1088.911,256.682,1055.041,256.682C1021.171,256.682,983.568,256.682,947.378,256.682C911.188,256.682,876.41,256.682,839.662,256.682C802.914,256.682,764.195,256.682,726.613,256.682C689.03,256.682,652.583,256.682,619.419,256.682C586.255,256.682,556.374,256.682,531.28,233.802C506.187,210.923,485.882,165.164,475.729,142.284L465.576,119.405" id="L-I-C-0" class=" edge-thickness-normal edge-pattern-solid flowchart-link LS-I LE-C" style="fill:none;" marker-end="url(#SVGID_flowchart-pointEnd)"/></g><g class="edgeLabels"><g class="edgeLabel"><g class="label" transform="translate(0, 0)"><rect rx="0" ry="0" width="0" height="0"/><text style=""><tspan xml:space="preserve" dy="1em" x="0" class="row"/></text></g></g><g class="edgeLabel" transform="translate(293.71484375, 66.810546875)"><g class="label" transform="translate(-12.0859375, -9.5)"><rect rx="0" ry="0" width="24.162593841552734" height="19.000656127929688"/><text style=""><tspan xml:space="preserve" dy="1em" x="0" class="row">Yes</tspan></text></g></g><g class="edgeLabel" transform="translate(526.4921875, 9.5)"><g class="label" transform="translate(-14.5234375, -9.5)"><rect rx="0" ry="0" width="29.034069061279297" height="19.000656127929688"/><text style=""><tspan xml:space="preserve" dy="1em" x="0" class="row">Edit</tspan></text></g></g><g class="edgeLabel"><g class="label" transform="translate(0, 0)"><rect rx="0" ry="0" width="0" height="0"/><text style=""><tspan xml:space="preserve" dy="1em" x="0" class="row"/></text></g></g><g class="edgeLabel" transform="translate(228.22265625, 128.310546875)"><g class="label" transform="translate(-9.60546875, -9.5)"><rect rx="0" ry="0" width="19.20520782470703" height="19.000656127929688"/><text style=""><tspan xml:space="preserve" dy="1em" x="0" class="row">No</tspan></text></g></g><g class="edgeLabel" transform="translate(374.69921875, 128.310546875)"><g class="label" transform="translate(-25.09765625, -9.5)"><rect rx="0" ry="0" width="50.17000961303711" height="19.000656127929688"/><text style=""><tspan xml:space="preserve" dy="1em" x="0" class="row">Submit</tspan></text></g></g><g class="edgeLabel"><g class="label" transform="translate(0, 0)"><rect rx="0" ry="0" width="0" height="0"/><text style=""><tspan xml:space="preserve" dy="1em" x="0" class="row"/></text></g></g><g class="edgeLabel" transform="translate(725.4765625, 99.37109375)"><g class="label" transform="translate(-24.53125, -9.5)"><rect rx="0" ry="0" width="49.03851318359375" height="19.000656127929688"/><text style=""><tspan xml:space="preserve" dy="1em" x="0" class="row">Movies</tspan></text></g></g><g class="edgeLabel" transform="translate(945.96484375, 99.37109375)"><g class="label" transform="translate(-22.39453125, -9.5)"><rect rx="0" ry="0" width="44.766944885253906" height="19.000656127929688"/><text style=""><tspan xml:space="preserve" dy="1em" x="0" class="row">Select</tspan></text></g></g><g class="edgeLabel"><g class="label" transform="translate(0, 0)"><rect rx="0" ry="0" width="0" height="0"/><text style=""><tspan xml:space="preserve" dy="1em" x="0" class="row"/></text></g></g><g class="edgeLabel" transform="translate(725.4765625, 183.37109375)"><g class="label" transform="translate(-34.21875, -9.5)"><rect rx="0" ry="0" width="68.40203857421875" height="19.000656127929688"/><text style=""><tspan xml:space="preserve" dy="1em" x="0" class="row">TV Shows</tspan></text></g></g><g class="edgeLabel" transform="translate(945.96484375, 183.37109375)"><g class="label" transform="translate(-22.39453125, -9.5)"><rect rx="0" ry="0" width="44.766944885253906" height="19.000656127929688"/><text style=""><tspan xml:space="preserve" dy="1em" x="0" class="row">Select</tspan></text></g></g><g class="edgeLabel"><g class="label" transform="translate(0, 0)"><rect rx="0" ry="0" width="0" height="0"/><text style=""><tspan xml:space="preserve" dy="1em" x="0" class="row"/></text></g></g><g class="edgeLabel" transform="translate(1323.578125, 183.37109375)"><g class="label" transform="translate(-18.078125, -9.5)"><rect rx="0" ry="0" width="36.141143798828125" height="19.000656127929688"/><text style=""><tspan xml:space="preserve" dy="1em" x="0" class="row">More</tspan></text></g></g><g class="edgeLabel"><g class="label" transform="translate(0, 0)"><rect rx="0" ry="0" width="0" height="0"/><text style=""><tspan xml:space="preserve" dy="1em" x="0" class="row"/></text></g></g><g class="edgeLabel"><g class="label" transform="translate(0, 0)"><rect rx="0" ry="0" width="0" height="0"/><text style=""><tspan xml:space="preserve" dy="1em" x="0" class="row"/></text></g></g><g class="edgeLabel"><g class="label" transform="translate(0, 0)"><rect rx="0" ry="0" width="0" height="0"/><text style=""><tspan xml:space="preserve" dy="1em" x="0" class="row"/></text></g></g><g class="edgeLabel" transform="translate(841.6328125, 256.681640625)"><g class="label" transform="translate(-23.84765625, -9.5)"><rect rx="0" ry="0" width="47.67274475097656" height="19.000656127929688"/><text style=""><tspan xml:space="preserve" dy="1em" x="0" class="row">Return</tspan></text></g></g></g><g class="nodes"><g class="node default default flowchart-label" id="flowchart-A-324" data-node="true" data-id="A" transform="translate(28.16796875, 97.560546875)"><rect class="basic label-container" style="" rx="0" ry="0" x="-28.16796875" y="-17" width="56.3359375" height="34"/><g class="label" style="" transform="translate(0, -9.5)"><rect/><text style=""><tspan xml:space="preserve" dy="1em" x="0" class="row">Home</tspan></text></g></g><g class="node default default flowchart-label" id="flowchart-B-325" data-node="true" data-id="B" transform="translate(149.9765625, 97.560546875)"><polygon points="43.640625,0 87.28125,-43.640625 43.640625,-87.28125 0,-43.640625" class="label-container" transform="translate(-43.640625,43.640625)" style=""/><g class="label" style="" transform="translate(0, -9.5)"><rect/><text style=""><tspan xml:space="preserve" dy="1em" x="0" class="row">Login</tspan></text></g></g><g class="node default default flowchart-label" id="flowchart-C-327" data-node="true" data-id="C" transform="translate(455.8828125, 97.560546875)"><rect class="basic label-container" style="" rx="0" ry="0" x="-31.0859375" y="-17" width="62.171875" height="34"/><g class="label" style="" transform="translate(0, -9.5)"><rect/><text style=""><tspan xml:space="preserve" dy="1em" x="0" class="row">Profile</tspan></text></g></g><g class="node default default flowchart-label" id="flowchart-D-329" data-node="true" data-id="D" transform="translate(616.13671875, 24.25)"><rect class="basic label-container" style="" rx="0" ry="0" x="-47.69140625" y="-17" width="95.3828125" height="34"/><g class="label" style="" transform="translate(0, -9.5)"><rect/><text style=""><tspan xml:space="preserve" dy="1em" x="0" class="row">Edit Profile</tspan></text></g></g><g class="node default default flowchart-label" id="flowchart-E-333" data-node="true" data-id="E" transform="translate(293.71484375, 128.310546875)"><rect class="basic label-container" style="" rx="0" ry="0" x="-30.88671875" y="-17" width="61.7734375" height="34"/><g class="label" style="" transform="translate(0, -9.5)"><rect/><text style=""><tspan xml:space="preserve" dy="1em" x="0" class="row">Signup</tspan></text></g></g><g class="node default default flowchart-label" id="flowchart-F-337" data-node="true" data-id="F" transform="translate(616.13671875, 141.37109375)"><polygon points="50.12109375,0 100.2421875,-50.12109375 50.12109375,-100.2421875 0,-50.12109375" class="label-container" transform="translate(-50.12109375,50.12109375)" style=""/><g class="label" style="" transform="translate(0, -9.5)"><rect/><text style=""><tspan xml:space="preserve" dy="1em" x="0" class="row">Browse</tspan></text></g></g><g class="node default default flowchart-label" id="flowchart-G-339" data-node="true" data-id="G" transform="translate(841.6328125, 99.37109375)"><rect class="basic label-container" style="" rx="0" ry="0" x="-44.01171875" y="-17" width="88.0234375" height="34"/><g class="label" style="" transform="translate(0, -9.5)"><rect/><text style=""><tspan xml:space="preserve" dy="1em" x="0" class="row">Movie List</tspan></text></g></g><g class="node default default flowchart-label" id="flowchart-H-341" data-node="true" data-id="H" transform="translate(1058.7734375, 99.37109375)"><rect class="basic label-container" style="" rx="0" ry="0" x="-55.7265625" y="-17" width="111.453125" height="34"/><g class="label" style="" transform="translate(0, -9.5)"><rect/><text style=""><tspan xml:space="preserve" dy="1em" x="0" class="row">Movie Details</tspan></text></g></g><g class="node default default flowchart-label" id="flowchart-I-343" data-node="true" data-id="I" transform="translate(1227.34375, 183.37109375)"><rect class="basic label-container" style="" rx="0" ry="0" x="-53.15625" y="-17" width="106.3125" height="34"/><g class="label" style="" transform="translate(0, -9.5)"><rect/><text style=""><tspan xml:space="preserve" dy="1em" x="0" class="row">Watch Movie</tspan></text></g></g><g class="node default default flowchart-label" id="flowchart-J-345" data-node="true" data-id="J" transform="translate(841.6328125, 183.37109375)"><rect class="basic label-container" style="" rx="0" ry="0" x="-56.9375" y="-17" width="113.875" height="34"/><g class="label" style="" transform="translate(0, -9.5)"><rect/><text style=""><tspan xml:space="preserve" dy="1em" x="0" class="row">TV Shows List</tspan></text></g></g><g class="node default default flowchart-label" id="flowchart-K-347" data-node="true" data-id="K" transform="translate(1058.7734375, 183.37109375)"><rect class="basic label-container" style="" rx="0" ry="0" x="-65.4140625" y="-17" width="130.828125" height="34"/><g class="label" style="" transform="translate(0, -9.5)"><rect/><text style=""><tspan xml:space="preserve" dy="1em" x="0" class="row">TV Show Details</tspan></text></g></g><g class="node default default flowchart-label" id="flowchart-L-351" data-node="true" data-id="L" transform="translate(1411.921875, 183.37109375)"><rect class="basic label-container" style="" rx="0" ry="0" x="-45.265625" y="-17" width="90.53125" height="34"/><g class="label" style="" transform="translate(0, -9.5)"><rect/><text style=""><tspan xml:space="preserve" dy="1em" x="0" class="row">Comments</tspan></text></g></g><g class="node default default flowchart-label" id="flowchart-M-353" data-node="true" data-id="M" transform="translate(1565.82421875, 157.931640625)"><rect class="basic label-container" style="" rx="0" ry="0" x="-58.63671875" y="-17" width="117.2734375" height="34"/><g class="label" style="" transform="translate(0, -9.5)"><rect/><text style=""><tspan xml:space="preserve" dy="1em" x="0" class="row">Add Comment</tspan></text></g></g><g class="node default default flowchart-label" id="flowchart-N-355" data-node="true" data-id="N" transform="translate(1743.734375, 183.37109375)"><rect class="basic label-container" style="" rx="0" ry="0" x="-69.2734375" y="-17" width="138.546875" height="34"/><g class="label" style="" transform="translate(0, -9.5)"><rect/><text style=""><tspan xml:space="preserve" dy="1em" x="0" class="row">Submit Comment</tspan></text></g></g></g></g></g></svg>